Coordinates
version=1
nRows=8
nColumns=40
inDegrees=yes

Units are S.I. units (second, meters, Newtons, ...)
Angles are in degrees.

endheader
time	pelvis_tilt	pelvis_list	pelvis_rotation	pelvis_tx	pelvis_ty	pelvis_tz	hip_flexion_r	hip_adduction_r	hip_rotation_r	knee_angle_r	knee_angle_r_beta	ankle_angle_r	subtalar_angle_r	mtp_angle_r	hip_flexion_l	hip_adduction_l	hip_rotation_l	knee_angle_l	knee_angle_l_beta	ankle_angle_l	subtalar_angle_l	mtp_angle_l	lumbar_extension	lumbar_bending	lumbar_rotation	arm_flex_r	arm_add_r	arm_rot_r	elbow_flex_r	pro_sup_r	wrist_flex_r	wrist_dev_r	arm_flex_l	arm_add_l	arm_rot_l	elbow_flex_l	pro_sup_l	wrist_flex_l	wrist_dev_l
     18.10828571	     -2.13260323	     -4.90939275	     -0.61182963	      1.06118069	      0.93752727	      0.40101177	     28.35433676	     -5.74413612	     -7.85009975	     31.01251061	     31.01251061	      0.03257644	     -4.98873197	     -2.01862825	     10.48263582	     -5.62886189	     -9.39328663	     19.10572926	     19.10572926	     13.57457159	     -4.79596638	     -4.62635971	    -11.35406645	      2.66179412	     -0.67609216	     -4.66973948	    -15.95733199	     -0.20998419	     28.17263515	     46.70410859	      0.00000000	      0.00000000	     18.27791013	    -14.53083679	     -3.08286166	     39.78082235	     45.63175526	      0.00000000	      0.00000000
     18.12157143	     -2.37490610	     -4.86625912	     -0.81205223	      1.06013899	      0.93709446	      0.40159030	     27.96750460	     -5.44941593	     -8.31476699	     26.35455178	     26.35455178	     -0.37602286	     -3.48202032	     -1.09407788	     10.29324218	     -5.62133898	     -9.61320847	     18.89111997	     18.89111997	     13.71746190	     -4.69436421	     -4.75069236	    -11.22275526	      2.59689718	     -0.85343986	     -5.76894405	    -16.13001837	     -0.48130574	     27.85693849	     46.72201386	      0.00000000	      0.00000000	     18.88411034	    -14.58169518	     -3.09041834	     40.58898904	     45.65220055	      0.00000000	      0.00000000
     18.13485714	     -2.64127886	     -4.69487059	     -1.04781692	      1.05922573	      0.93648508	      0.40234631	     27.60142231	     -5.23400712	     -8.75078859	     21.91614329	     21.91614329	     -0.68218699	     -1.72670640	     -0.09888476	     10.11052723	     -5.49406279	     -9.93842411	     18.66564128	     18.66564128	     13.85697832	     -4.53129352	     -4.90762576	    -11.04856486	      2.38669755	     -0.88135594	     -6.84580195	    -16.13900522	     -0.71314682	     27.59086440	     46.73598788	      0.00000000	      0.00000000	     19.52129352	    -14.58815339	     -3.12295063	     41.54566132	     45.67532006	      0.00000000	      0.00000000
     18.14814286	     -2.63821079	     -4.59830061	     -1.19528013	      1.05858707	      0.93618174	      0.40312152	     26.86261813	     -4.98301882	     -9.54030333	     17.73097673	     17.73097673	     -0.77856459	      0.58044978	      1.19265139	      9.59391759	     -5.45139784	    -10.25728741	     18.39201149	     18.39201149	     14.04287095	     -4.18009665	     -5.16607497	    -11.20567917	      2.27159630	     -0.69207412	     -8.05787859	    -16.29201464	     -1.17406895	     27.43053410	     46.75885462	      0.00000000	      0.00000000	     20.14107227	    -14.47795570	     -3.15837379	     43.05508187	     45.70581613	      0.00000000	      0.00000000
     18.16142857	     -2.79133998	     -4.39184685	     -1.40899132	      1.05797668	      0.93558039	      0.40406288	     26.68365586	     -4.89879241	    -10.38024231	     14.72877672	     14.72877672	      0.48240752	      3.35418645	      5.84201454	      9.21723943	     -5.30564421	    -10.69877078	     18.06473130	     18.06473130	     14.08588863	     -3.80783726	     -5.82680339	    -11.22690734	      2.03615782	     -0.68888433	     -9.37854697	    -16.01459742	     -4.10927933	     28.47516174	     46.86349689	      0.00000000	      0.00000000	     19.85481463	    -14.75966064	     -2.92058643	     46.57967337	     45.77368066	      0.00000000	      0.00000000
     18.17471429	     -2.99078799	     -4.13552054	     -1.58776825	      1.05747794	      0.93483461	      0.40526745	     26.48127190	     -4.73230978	    -10.64640887	     11.94628036	     11.94628036	      0.43470470	      4.82637385	      6.75064331	      8.94198815	     -5.09457371	    -10.93160545	     17.84271661	     17.84271661	     14.25397551	     -3.70353024	     -5.94927523	    -11.03410675	      1.73411997	     -0.58258374	    -10.13198497	    -15.84006362	     -4.24280102	     28.17935391	     46.87251466	      0.00000000	      0.00000000	     20.51598914	    -14.63735337	     -2.95183501	     47.31379563	     45.79726658	      0.00000000	      0.00000000
     18.18800000	     -2.96852021	     -4.00351006	     -1.75274484	      1.05722848	      0.93456625	      0.40645785	     26.25308551	     -4.61539759	    -11.52133477	     10.25808818	     10.25808818	      1.68834553	      7.09342710	     10.82654757	      8.28815971	     -4.99151534	    -11.19342766	     17.38006833	     17.38006833	     14.26445732	     -3.54259750	     -6.52395238	    -11.15716436	      1.60296522	     -0.44544730	    -11.02995312	    -15.63392386	     -5.99681078	     28.54697932	     46.91952643	      0.00000000	      0.00000000	     20.63806957	    -14.70042786	     -2.94493056	     49.86806510	     45.88512467	      0.00000000	      0.00000000
     18.20128571	     -3.10077683	     -3.80090596	     -1.91434223	      1.05707982	      0.93403260	      0.40787874	     26.16517408	     -4.48301829	    -11.64244811	      8.98654259	      8.98654259	      1.72526504	      7.90413175	     11.23748281	      7.83814541	     -4.82095407	    -11.38820588	     17.00044739	     17.00044739	     14.44159937	     -3.41864476	     -6.58841578	    -10.97864768	      1.40058724	     -0.25798798	    -11.58433527	    -15.44494976	     -6.08506229	     28.33663221	     46.92235511	      0.00000000	      0.00000000	     21.21301921	    -14.53920872	     -2.99973801	     50.67860184	     45.91133002	      0.00000000	      0.00000000
